Blocksync-ExpandedBlack.ufo
<glyph name="parenright" format="2">
  <advance width="354"/>
  <unicode hex="0029"/>
  <outline>
    <contour>
      <point x="80" y="0" type="line" smooth="yes"/>
      <point x="251" y="0"/>
      <point x="331" y="57"/>
      <point x="331" y="389" type="curve" smooth="yes"/>
      <point x="331" y="411" type="line" smooth="yes"/>
      <point x="331" y="743"/>
      <point x="251" y="800"/>
      <point x="80" y="800" type="curve" smooth="yes"/>
      <point x="69" y="800" type="line" smooth="yes"/>
      <point x="34" y="800"/>
      <point x="23" y="789"/>
      <point x="23" y="754" type="curve" smooth="yes"/>
      <point x="23" y="686" type="line" smooth="yes"/>
      <point x="23" y="652"/>
      <point x="34" y="640"/>
      <point x="69" y="640" type="curve" smooth="yes"/>
      <point x="80" y="640" type="line" smooth="yes"/>
      <point x="126" y="640"/>
      <point x="149" y="606"/>
      <point x="149" y="411" type="curve" smooth="yes"/>
      <point x="149" y="389" type="line" smooth="yes"/>
      <point x="149" y="177"/>
      <point x="126" y="160"/>
      <point x="80" y="160" type="curve" smooth="yes"/>
      <point x="69" y="160" type="line" smooth="yes"/>
      <point x="34" y="160"/>
      <point x="23" y="149"/>
      <point x="23" y="114" type="curve" smooth="yes"/>
      <point x="23" y="46" type="line" smooth="yes"/>
      <point x="23" y="11"/>
      <point x="34" y="0"/>
      <point x="69" y="0" type="curve" smooth="yes"/>
    </contour>
  </outline>
</glyph>
<glyph name="slash" format="2">
  <advance width="389"/>
  <unicode hex="002F"/>
  <outline>
    <contour>
      <point x="58" y="0" type="curve" smooth="yes"/>
      <point x="241" y="0" type="line" smooth="yes"/>
      <point x="275" y="0"/>
      <point x="282" y="11"/>
      <point x="287" y="46" type="curve" smooth="yes"/>
      <point x="375" y="749" type="line" smooth="yes"/>
      <point x="376" y="754"/>
      <point x="377" y="761"/>
      <point x="377" y="767" type="curve" smooth="yes"/>
      <point x="377" y="792"/>
      <point x="360" y="800"/>
      <point x="330" y="800" type="curve" smooth="yes"/>
      <point x="147" y="800" type="line" smooth="yes"/>
      <point x="113" y="800"/>
      <point x="106" y="789"/>
      <point x="102" y="754" type="curve" smooth="yes"/>
      <point x="14" y="51" type="line" smooth="yes"/>
      <point x="13" y="47"/>
      <point x="11" y="41"/>
      <point x="11" y="33" type="curve" smooth="yes"/>
      <point x="11" y="9"/>
      <point x="29" y="0"/>
    </contour>
  </outline>
</glyph>
<glyph name="one" format="2">
  <advance width="354"/>
  <unicode hex="0031"/>
  <outline>
    <contour>
      <point x="171" y="0" type="curve" smooth="yes"/>
      <point x="286" y="0" type="line" smooth="yes"/>
      <point x="320" y="0"/>
      <point x="331" y="11"/>
      <point x="331" y="46" type="curve" smooth="yes"/>
      <point x="331" y="754" type="line" smooth="yes"/>
      <point x="331" y="789"/>
      <point x="320" y="800"/>
      <point x="286" y="800" type="curve" smooth="yes"/>
      <point x="171" y="800" type="line" smooth="yes"/>
      <point x="137" y="800"/>
      <point x="126" y="789"/>
      <point x="126" y="754" type="curve" smooth="yes"/>
      <point x="126" y="697"/>
      <point x="103" y="674"/>
      <point x="46" y="674" type="curve" smooth="yes"/>
      <point x="23" y="674"/>
      <point x="11" y="663"/>
      <point x="11" y="640" type="curve" smooth="yes"/>
      <point x="11" y="560" type="line" smooth="yes"/>
      <point x="11" y="537"/>
      <point x="23" y="526"/>
      <point x="46" y="526" type="curve" smooth="yes"/>
      <point x="103" y="526" type="line" smooth="yes"/>
      <point x="120" y="526"/>
      <point x="126" y="520"/>
      <point x="126" y="503" type="curve" smooth="yes"/>
      <point x="126" y="46" type="line" smooth="yes"/>
      <point x="126" y="11"/>
      <point x="137" y="0"/>
    </contour>
  </outline>
</glyph>
<glyph name="question" format="2">
  <advance width="537"/>
  <unicode hex="003F"/>
  <outline>
    <contour>
      <point x="194" y="240" type="curve" smooth="yes"/>
      <point x="309" y="240" type="line" smooth="yes"/>
      <point x="343" y="240"/>
      <point x="352" y="250"/>
      <point x="353" y="286" type="curve" smooth="yes"/>
      <point x="354" y="320" type="line" smooth="yes"/>
      <point x="355" y="344"/>
      <point x="381" y="363"/>
      <point x="409" y="385" type="curve" smooth="yes"/>
      <point x="473" y="433"/>
      <point x="514" y="469"/>
      <point x="514" y="572" type="curve" smooth="yes"/>
      <point x="514" y="732"/>
      <point x="423" y="812"/>
      <point x="263" y="812" type="curve" smooth="yes"/>
      <point x="103" y="812"/>
      <point x="23" y="732"/>
      <point x="23" y="572" type="curve" smooth="yes"/>
      <point x="23" y="537"/>
      <point x="34" y="526"/>
      <point x="69" y="526" type="curve" smooth="yes"/>
      <point x="171" y="526" type="line" smooth="yes"/>
      <point x="206" y="526"/>
      <point x="217" y="537"/>
      <point x="217" y="572" type="curve" smooth="yes"/>
      <point x="217" y="594" type="line" smooth="yes"/>
      <point x="217" y="629"/>
      <point x="229" y="652"/>
      <point x="263" y="652" type="curve" smooth="yes"/>
      <point x="296" y="652"/>
      <point x="309" y="617"/>
      <point x="309" y="583" type="curve" smooth="yes"/>
      <point x="309" y="510"/>
      <point x="304" y="506"/>
      <point x="233" y="453" type="curve" smooth="yes"/>
      <point x="159" y="397"/>
      <point x="149" y="355"/>
      <point x="149" y="320" type="curve" smooth="yes"/>
      <point x="149" y="286" type="line" smooth="yes"/>
      <point x="149" y="253"/>
      <point x="160" y="240"/>
    </contour>
    <contour>
      <point x="211" y="0" type="curve" smooth="yes"/>
      <point x="291" y="0" type="line" smooth="yes"/>
      <point x="326" y="0"/>
      <point x="337" y="11"/>
      <point x="337" y="46" type="curve" smooth="yes"/>
      <point x="337" y="126" type="line" smooth="yes"/>
      <point x="337" y="160"/>
      <point x="326" y="171"/>
      <point x="291" y="171" type="curve" smooth="yes"/>
      <point x="211" y="171" type="line" smooth="yes"/>
      <point x="177" y="171"/>
      <point x="166" y="160"/>
      <point x="166" y="126" type="curve" smooth="yes"/>
      <point x="166" y="46" type="line" smooth="yes"/>
      <point x="166" y="11"/>
      <point x="177" y="0"/>
    </contour>
  </outline>
</glyph>
<glyph name="A" format="2">
  <advance width="663"/>
  <unicode hex="0041"/>
  <anchor x="331" y="0" name="bottom"/>
  <anchor x="331" y="800" name="top"/>
  <outline>
    <contour>
      <point x="57" y="0" type="curve" smooth="yes"/>
      <point x="269" y="0" type="line" smooth="yes"/>
      <point x="303" y="0"/>
      <point x="314" y="11"/>
      <point x="314" y="46" type="curve" smooth="yes"/>
      <point x="314" y="137" type="line" smooth="yes"/>
      <point x="314" y="154"/>
      <point x="319" y="160"/>
      <point x="330" y="160" type="curve" smooth="yes"/>
      <point x="333" y="160" type="line" smooth="yes"/>
      <point x="344" y="160"/>
      <point x="349" y="154"/>
      <point x="349" y="137" type="curve" smooth="yes"/>
      <point x="349" y="46" type="line" smooth="yes"/>
      <point x="349" y="11"/>
      <point x="360" y="0"/>
      <point x="394" y="0" type="curve" smooth="yes"/>
      <point x="606" y="0" type="line" smooth="yes"/>
      <point x="640" y="0"/>
      <point x="652" y="11"/>
      <point x="652" y="46" type="curve" smooth="yes"/>
      <point x="652" y="69"/>
      <point x="642" y="114"/>
      <point x="639" y="137" type="curve" smooth="yes"/>
      <point x="560" y="754" type="line" smooth="yes"/>
      <point x="555" y="789"/>
      <point x="537" y="800"/>
      <point x="503" y="800" type="curve" smooth="yes"/>
      <point x="160" y="800" type="line" smooth="yes"/>
      <point x="126" y="800"/>
      <point x="107" y="789"/>
      <point x="103" y="754" type="curve" smooth="yes"/>
      <point x="24" y="137" type="line" smooth="yes"/>
      <point x="21" y="114"/>
      <point x="11" y="69"/>
      <point x="11" y="46" type="curve" smooth="yes"/>
      <point x="11" y="11"/>
      <point x="23" y="0"/>
    </contour>
    <contour>
      <point x="330" y="343" type="line" smooth="yes"/>
      <point x="319" y="343"/>
      <point x="314" y="352"/>
      <point x="314" y="365" type="curve" smooth="yes"/>
      <point x="314" y="374"/>
      <point x="314" y="378"/>
      <point x="314" y="390" type="curve" smooth="yes"/>
      <point x="314" y="606" type="line" smooth="yes"/>
      <point x="314" y="621"/>
      <point x="321" y="629"/>
      <point x="331" y="629" type="curve" smooth="yes"/>
      <point x="342" y="629"/>
      <point x="349" y="621"/>
      <point x="349" y="606" type="curve" smooth="yes"/>
      <point x="349" y="390" type="line" smooth="yes"/>
      <point x="349" y="378"/>
      <point x="349" y="374"/>
      <point x="349" y="365" type="curve" smooth="yes"/>
      <point x="349" y="352"/>
      <point x="344" y="343"/>
      <point x="333" y="343" type="curve" smooth="yes"/>
    </contour>
  </outline>
</glyph>
<glyph name="B" format="2">
  <advance width="663"/>
  <unicode hex="0042"/>
  <outline>
    <contour>
      <point x="67" y="0" type="curve" smooth="yes"/>
      <point x="434" y="0" type="line" smooth="yes"/>
      <point x="583" y="0"/>
      <point x="652" y="80"/>
      <point x="652" y="217" type="curve" smooth="yes"/>
      <point x="652" y="229" type="line" smooth="yes"/>
      <point x="652" y="331"/>
      <point x="590" y="385"/>
      <point x="560" y="400" type="curve" smooth="yes"/>
      <point x="554" y="403"/>
      <point x="549" y="406"/>
      <point x="549" y="411" type="curve" smooth="yes"/>
      <point x="549" y="417"/>
      <point x="553" y="418"/>
      <point x="560" y="423" type="curve" smooth="yes"/>
      <point x="586" y="440"/>
      <point x="629" y="491"/>
      <point x="629" y="572" type="curve" smooth="yes"/>
      <point x="629" y="583" type="line" smooth="yes"/>
      <point x="629" y="732"/>
      <point x="537" y="800"/>
      <point x="389" y="800" type="curve" smooth="yes"/>
      <point x="69" y="800" type="line" smooth="yes"/>
      <point x="34" y="800"/>
      <point x="23" y="789"/>
      <point x="23" y="754" type="curve" smooth="yes"/>
      <point x="23" y="46" type="line" smooth="yes"/>
      <point x="23" y="11"/>
      <point x="33" y="0"/>
    </contour>
    <contour>
      <point x="325" y="160" type="line" smooth="yes"/>
      <point x="313" y="160"/>
      <point x="309" y="169"/>
      <point x="309" y="182" type="curve" smooth="yes"/>
      <point x="309" y="309" type="line" smooth="yes"/>
      <point x="309" y="323"/>
      <point x="313" y="331"/>
      <point x="325" y="331" type="curve" smooth="yes"/>
      <point x="327" y="331" type="line" smooth="yes"/>
      <point x="338" y="331"/>
      <point x="343" y="323"/>
      <point x="343" y="309" type="curve" smooth="yes"/>
      <point x="343" y="182" type="line" smooth="yes"/>
      <point x="343" y="169"/>
      <point x="338" y="160"/>
      <point x="327" y="160" type="curve" smooth="yes"/>
    </contour>
    <contour>
      <point x="325" y="491" type="line" smooth="yes"/>
      <point x="313" y="491"/>
      <point x="309" y="501"/>
      <point x="309" y="513" type="curve" smooth="yes"/>
      <point x="309" y="617" type="line" smooth="yes"/>
      <point x="309" y="632"/>
      <point x="313" y="640"/>
      <point x="325" y="640" type="curve" smooth="yes"/>
      <point x="327" y="640" type="line" smooth="yes"/>
      <point x="338" y="640"/>
      <point x="343" y="632"/>
      <point x="343" y="617" type="curve" smooth="yes"/>
      <point x="343" y="513" type="line" smooth="yes"/>
      <point x="343" y="501"/>
      <point x="338" y="491"/>
      <point x="327" y="491" type="curve" smooth="yes"/>
    </contour>
  </outline>
</glyph>
<glyph name="C" format="2">
  <advance width="640"/>
  <unicode hex="0043"/>
  <anchor x="271" y="800" name="top"/>
  <outline>
    <contour>
      <point x="328" y="-11" type="curve" smooth="yes"/>
      <point x="511" y="-11"/>
      <point x="629" y="80"/>
      <point x="629" y="263" type="curve" smooth="yes"/>
      <point x="629" y="349" type="line" smooth="yes"/>
      <point x="629" y="383"/>
      <point x="617" y="394"/>
      <point x="583" y="394" type="curve" smooth="yes"/>
      <point x="391" y="394" type="line" smooth="yes"/>
      <point x="357" y="394"/>
      <point x="345" y="383"/>
      <point x="345" y="349" type="curve" smooth="yes"/>
      <point x="345" y="183" type="line" smooth="yes"/>
      <point x="345" y="168"/>
      <point x="339" y="160"/>
      <point x="328" y="160" type="curve" smooth="yes"/>
      <point x="317" y="160"/>
      <point x="311" y="168"/>
      <point x="311" y="183" type="curve" smooth="yes"/>
      <point x="311" y="617" type="line" smooth="yes"/>
      <point x="311" y="632"/>
      <point x="317" y="640"/>
      <point x="328" y="640" type="curve" smooth="yes"/>
      <point x="339" y="640"/>
      <point x="345" y="632"/>
      <point x="345" y="617" type="curve" smooth="yes"/>
      <point x="345" y="474" type="line" smooth="yes"/>
      <point x="345" y="440"/>
      <point x="357" y="429"/>
      <point x="391" y="429" type="curve" smooth="yes"/>
      <point x="583" y="429" type="line" smooth="yes"/>
      <point x="617" y="429"/>
      <point x="629" y="440"/>
      <point x="629" y="474" type="curve" smooth="yes"/>
      <point x="629" y="537" type="line" smooth="yes"/>
      <point x="629" y="720"/>
      <point x="511" y="812"/>
      <point x="328" y="812" type="curve" smooth="yes"/>
      <point x="145" y="812"/>
      <point x="11" y="720"/>
      <point x="11" y="537" type="curve" smooth="yes"/>
      <point x="11" y="263" type="line" smooth="yes"/>
      <point x="11" y="80"/>
      <point x="145" y="-11"/>
    </contour>
  </outline>
</glyph>
<glyph name="D" format="2">
  <advance width="663"/>
  <unicode hex="0044"/>
  <anchor x="263" y="800" name="top"/>
  <outline>
    <contour>
      <point x="57" y="0" type="curve" smooth="yes"/>
      <point x="377" y="0" type="line" smooth="yes"/>
      <point x="560" y="0"/>
      <point x="652" y="80"/>
      <point x="652" y="274" type="curve" smooth="yes"/>
      <point x="652" y="526" type="line" smooth="yes"/>
      <point x="652" y="720"/>
      <point x="537" y="800"/>
      <point x="354" y="800" type="curve" smooth="yes"/>
      <point x="57" y="800" type="line" smooth="yes"/>
      <point x="23" y="800"/>
      <point x="11" y="789"/>
      <point x="11" y="754" type="curve" smooth="yes"/>
      <point x="11" y="46" type="line" smooth="yes"/>
      <point x="11" y="11"/>
      <point x="23" y="0"/>
    </contour>
    <contour>
      <point x="325" y="171" type="line" smooth="yes"/>
      <point x="313" y="171"/>
      <point x="309" y="181"/>
      <point x="309" y="193" type="curve" smooth="yes"/>
      <point x="309" y="606" type="line" smooth="yes"/>
      <point x="309" y="621"/>
      <point x="313" y="629"/>
      <point x="325" y="629" type="curve" smooth="yes"/>
      <point x="327" y="629" type="line" smooth="yes"/>
      <point x="338" y="629"/>
      <point x="343" y="621"/>
      <point x="343" y="606" type="curve" smooth="yes"/>
      <point x="343" y="193" type="line" smooth="yes"/>
      <point x="343" y="181"/>
      <point x="338" y="171"/>
      <point x="327" y="171" type="curve" smooth="yes"/>
    </contour>
  </outline>
</glyph>
<glyph name="E" format="2">
  <advance width="549"/>
  <unicode hex="0045"/>
  <anchor x="275" y="800" name="top"/>
  <outline>
    <contour>
      <point x="63" y="0" type="curve" smooth="yes"/>
      <point x="491" y="0" type="line" smooth="yes"/>
      <point x="526" y="0"/>
      <point x="537" y="11"/>
      <point x="537" y="46" type="curve" smooth="yes"/>
      <point x="537" y="200" type="line" smooth="yes"/>
      <point x="537" y="234"/>
      <point x="526" y="246"/>
      <point x="491" y="246" type="curve" smooth="yes"/>
      <point x="343" y="246" type="line" smooth="yes"/>
      <point x="328" y="246"/>
      <point x="320" y="251"/>
      <point x="320" y="263" type="curve" smooth="yes"/>
      <point x="320" y="265" type="line" smooth="yes"/>
      <point x="320" y="277"/>
      <point x="328" y="282"/>
      <point x="343" y="282" type="curve" smooth="yes"/>
      <point x="446" y="282" type="line" smooth="yes"/>
      <point x="480" y="282"/>
      <point x="491" y="294"/>
      <point x="491" y="328" type="curve" smooth="yes"/>
      <point x="491" y="478" type="line" smooth="yes"/>
      <point x="491" y="512"/>
      <point x="480" y="523"/>
      <point x="446" y="523" type="curve" smooth="yes"/>
      <point x="343" y="523" type="line" smooth="yes"/>
      <point x="328" y="523"/>
      <point x="320" y="529"/>
      <point x="320" y="541" type="curve" smooth="yes"/>
      <point x="320" y="543" type="line" smooth="yes"/>
      <point x="320" y="554"/>
      <point x="328" y="560"/>
      <point x="343" y="560" type="curve" smooth="yes"/>
      <point x="491" y="560" type="line" smooth="yes"/>
      <point x="526" y="560"/>
      <point x="537" y="572"/>
      <point x="537" y="606" type="curve" smooth="yes"/>
      <point x="537" y="754" type="line" smooth="yes"/>
      <point x="537" y="789"/>
      <point x="526" y="800"/>
      <point x="491" y="800" type="curve" smooth="yes"/>
      <point x="63" y="800" type="line" smooth="yes"/>
      <point x="29" y="800"/>
      <point x="17" y="789"/>
      <point x="17" y="754" type="curve" smooth="yes"/>
      <point x="17" y="46" type="line" smooth="yes"/>
      <point x="17" y="11"/>
      <point x="29" y="0"/>
    </contour>
  </outline>
</glyph>
<glyph name="F" format="2">
  <advance width="549"/>
  <unicode hex="0046"/>
  <outline>
    <contour>
      <point x="69" y="0" type="curve" smooth="yes"/>
      <point x="274" y="0" type="line" smooth="yes"/>
      <point x="309" y="0"/>
      <point x="320" y="11"/>
      <point x="320" y="46" type="curve" smooth="yes"/>
      <point x="320" y="263" type="line" smooth="yes"/>
      <point x="320" y="280"/>
      <point x="326" y="286"/>
      <point x="343" y="286" type="curve" smooth="yes"/>
      <point x="451" y="286" type="line" smooth="yes"/>
      <point x="486" y="286"/>
      <point x="497" y="297"/>
      <point x="497" y="331" type="curve" smooth="yes"/>
      <point x="497" y="478" type="line" smooth="yes"/>
      <point x="497" y="512"/>
      <point x="486" y="523"/>
      <point x="451" y="523" type="curve" smooth="yes"/>
      <point x="343" y="523" type="line" smooth="yes"/>
      <point x="328" y="523"/>
      <point x="320" y="529"/>
      <point x="320" y="541" type="curve" smooth="yes"/>
      <point x="320" y="543" type="line" smooth="yes"/>
      <point x="320" y="554"/>
      <point x="328" y="560"/>
      <point x="343" y="560" type="curve" smooth="yes"/>
      <point x="491" y="560" type="line" smooth="yes"/>
      <point x="526" y="560"/>
      <point x="537" y="572"/>
      <point x="537" y="606" type="curve" smooth="yes"/>
      <point x="537" y="754" type="line" smooth="yes"/>
      <point x="537" y="789"/>
      <point x="526" y="800"/>
      <point x="491" y="800" type="curve" smooth="yes"/>
      <point x="69" y="800" type="line" smooth="yes"/>
      <point x="34" y="800"/>
      <point x="23" y="789"/>
      <point x="23" y="754" type="curve" smooth="yes"/>
      <point x="23" y="46" type="line" smooth="yes"/>
      <point x="23" y="11"/>
      <point x="34" y="0"/>
    </contour>
  </outline>
</glyph>
<glyph name="G" format="2">
  <advance width="640"/>
  <unicode hex="0047"/>
  <anchor x="269" y="0" name="bottom"/>
  <anchor x="274" y="800" name="top"/>
  <outline>
    <contour>
      <point x="294" y="-11" type="curve" smooth="yes"/>
      <point x="397" y="-11"/>
      <point x="479" y="40"/>
      <point x="506" y="40" type="curve" smooth="yes"/>
      <point x="529" y="40"/>
      <point x="554" y="0"/>
      <point x="590" y="0" type="curve" smooth="yes"/>
      <point x="617" y="0"/>
      <point x="629" y="11"/>
      <point x="629" y="46" type="curve" smooth="yes"/>
      <point x="629" y="349" type="line" smooth="yes"/>
      <point x="629" y="383"/>
      <point x="616" y="394"/>
      <point x="583" y="394" type="curve" smooth="yes"/>
      <point x="362" y="394" type="line" smooth="yes"/>
      <point x="347" y="394"/>
      <point x="339" y="386"/>
      <point x="339" y="371" type="curve" smooth="yes"/>
      <point x="339" y="240" type="line" smooth="yes"/>
      <point x="339" y="225"/>
      <point x="347" y="217"/>
      <point x="362" y="217" type="curve" smooth="yes"/>
      <point x="370" y="217" type="line" smooth="yes"/>
      <point x="386" y="217"/>
      <point x="393" y="210"/>
      <point x="393" y="194" type="curve" smooth="yes"/>
      <point x="393" y="171"/>
      <point x="379" y="160"/>
      <point x="350" y="160" type="curve" smooth="yes"/>
      <point x="315" y="160"/>
      <point x="311" y="171"/>
      <point x="311" y="194" type="curve" smooth="yes"/>
      <point x="311" y="617" type="line" smooth="yes"/>
      <point x="311" y="632"/>
      <point x="317" y="640"/>
      <point x="328" y="640" type="curve" smooth="yes"/>
      <point x="339" y="640"/>
      <point x="345" y="630"/>
      <point x="345" y="617" type="curve" smooth="yes"/>
      <point x="345" y="474" type="line" smooth="yes"/>
      <point x="345" y="442"/>
      <point x="357" y="429"/>
      <point x="391" y="429" type="curve" smooth="yes"/>
      <point x="583" y="429" type="line" smooth="yes"/>
      <point x="617" y="429"/>
      <point x="629" y="440"/>
      <point x="629" y="474" type="curve" smooth="yes"/>
      <point x="629" y="560" type="line" smooth="yes"/>
      <point x="629" y="754"/>
      <point x="522" y="812"/>
      <point x="317" y="812" type="curve" smooth="yes"/>
      <point x="111" y="812"/>
      <point x="17" y="754"/>
      <point x="17" y="560" type="curve" smooth="yes"/>
      <point x="17" y="217" type="line" smooth="yes"/>
      <point x="17" y="57"/>
      <point x="157" y="-11"/>
    </contour>
  </outline>
</glyph>
<glyph name="H" format="2">
  <advance width="663"/>
  <unicode hex="0048"/>
  <outline>
    <contour>
      <point x="63" y="0" type="curve" smooth="yes"/>
      <point x="269" y="0" type="line" smooth="yes"/>
      <point x="303" y="0"/>
      <point x="314" y="11"/>
      <point x="314" y="46" type="curve" smooth="yes"/>
      <point x="314" y="297" type="line" smooth="yes"/>
      <point x="314" y="309"/>
      <point x="320" y="320"/>
      <point x="330" y="320" type="curve" smooth="yes"/>
      <point x="333" y="320" type="line" smooth="yes"/>
      <point x="343" y="320"/>
      <point x="349" y="309"/>
      <point x="349" y="297" type="curve" smooth="yes"/>
      <point x="349" y="46" type="line" smooth="yes"/>
      <point x="349" y="11"/>
      <point x="360" y="0"/>
      <point x="394" y="0" type="curve" smooth="yes"/>
      <point x="600" y="0" type="line" smooth="yes"/>
      <point x="629" y="0"/>
      <point x="646" y="11"/>
      <point x="646" y="46" type="curve" smooth="yes"/>
      <point x="646" y="754" type="line" smooth="yes"/>
      <point x="646" y="789"/>
      <point x="634" y="800"/>
      <point x="600" y="800" type="curve" smooth="yes"/>
      <point x="394" y="800" type="line" smooth="yes"/>
      <point x="360" y="800"/>
      <point x="349" y="789"/>
      <point x="349" y="754" type="curve" smooth="yes"/>
      <point x="349" y="537" type="line" smooth="yes"/>
      <point x="349" y="526"/>
      <point x="343" y="514"/>
      <point x="333" y="514" type="curve" smooth="yes"/>
      <point x="330" y="514" type="line" smooth="yes"/>
      <point x="320" y="514"/>
      <point x="314" y="526"/>
      <point x="314" y="537" type="curve" smooth="yes"/>
      <point x="314" y="754" type="line" smooth="yes"/>
      <point x="314" y="789"/>
      <point x="303" y="800"/>
      <point x="269" y="800" type="curve" smooth="yes"/>
      <point x="63" y="800" type="line" smooth="yes"/>
      <point x="29" y="800"/>
      <point x="17" y="789"/>
      <point x="17" y="754" type="curve" smooth="yes"/>
      <point x="17" y="46" type="line" smooth="yes"/>
      <point x="17" y="11"/>
      <point x="29" y="0"/>
    </contour>
  </outline>
</glyph>
<glyph name="I" format="2">
  <advance width="331"/>
  <unicode hex="0049"/>
  <anchor x="166" y="800" name="top"/>
  <outline>
    <contour>
      <point x="63" y="0" type="curve" smooth="yes"/>
      <point x="269" y="0" type="line" smooth="yes"/>
      <point x="303" y="0"/>
      <point x="314" y="11"/>
      <point x="314" y="46" type="curve" smooth="yes"/>
      <point x="314" y="754" type="line" smooth="yes"/>
      <point x="314" y="789"/>
      <point x="303" y="800"/>
      <point x="269" y="800" type="curve" smooth="yes"/>
      <point x="63" y="800" type="line" smooth="yes"/>
      <point x="29" y="800"/>
      <point x="17" y="789"/>
      <point x="17" y="754" type="curve" smooth="yes"/>
      <point x="17" y="46" type="line" smooth="yes"/>
      <point x="17" y="11"/>
      <point x="29" y="0"/>
    </contour>
  </outline>
</glyph>
<glyph name="J" format="2">
  <advance width="411"/>
  <unicode hex="004A"/>
  <outline>
    <contour>
      <point x="57" y="0" type="curve" smooth="yes"/>
      <point x="224" y="0" type="line" smooth="yes"/>
      <point x="384" y="0"/>
      <point x="394" y="69"/>
      <point x="394" y="229" type="curve" smooth="yes"/>
      <point x="394" y="754" type="line" smooth="yes"/>
      <point x="394" y="789"/>
      <point x="383" y="800"/>
      <point x="349" y="800" type="curve" smooth="yes"/>
      <point x="131" y="800" type="line" smooth="yes"/>
      <point x="97" y="800"/>
      <point x="86" y="789"/>
      <point x="86" y="754" type="curve" smooth="yes"/>
      <point x="86" y="194" type="line" smooth="yes"/>
      <point x="86" y="177"/>
      <point x="80" y="171"/>
      <point x="63" y="171" type="curve" smooth="yes"/>
      <point x="57" y="171" type="line" smooth="yes"/>
      <point x="23" y="171"/>
      <point x="11" y="160"/>
      <point x="11" y="126" type="curve" smooth="yes"/>
      <point x="11" y="46" type="line" smooth="yes"/>
      <point x="11" y="11"/>
      <point x="23" y="0"/>
    </contour>
  </outline>
</glyph>
<glyph name="K" format="2">
  <advance width="663"/>
  <unicode hex="004B"/>
  <anchor x="269" y="0" name="bottom"/>
  <outline>
    <contour>
      <point x="63" y="-1" type="curve" smooth="yes"/>
      <point x="269" y="0" type="line" smooth="yes"/>
      <point x="303" y="0"/>
      <point x="314" y="11"/>
      <point x="314" y="46" type="curve" smooth="yes"/>
      <point x="311" y="320" type="line" smooth="yes"/>
      <point x="311" y="335"/>
      <point x="317" y="343"/>
      <point x="328" y="343" type="curve" smooth="yes"/>
      <point x="339" y="343"/>
      <point x="345" y="335"/>
      <point x="345" y="320" type="curve" smooth="yes"/>
      <point x="349" y="46" type="line" smooth="yes"/>
      <point x="349" y="11"/>
      <point x="371" y="0"/>
      <point x="406" y="0" type="curve" smooth="yes"/>
      <point x="610" y="0" type="line" smooth="yes"/>
      <point x="645" y="0"/>
      <point x="656" y="11"/>
      <point x="656" y="46" type="curve" smooth="yes"/>
      <point x="656" y="69"/>
      <point x="653" y="89"/>
      <point x="647" y="120" type="curve" smooth="yes"/>
      <point x="593" y="395" type="line" smooth="yes"/>
      <point x="589" y="419"/>
      <point x="588" y="435"/>
      <point x="588" y="447" type="curve" smooth="yes"/>
      <point x="588" y="458"/>
      <point x="586" y="479"/>
      <point x="596" y="512" type="curve" smooth="yes"/>
      <point x="644" y="689" type="line" smooth="yes"/>
      <point x="648" y="708"/>
      <point x="657" y="750"/>
      <point x="657" y="766" type="curve" smooth="yes"/>
      <point x="657" y="789"/>
      <point x="646" y="800"/>
      <point x="612" y="800" type="curve" smooth="yes"/>
      <point x="402" y="800" type="line" smooth="yes"/>
      <point x="371" y="800"/>
      <point x="345" y="791"/>
      <point x="345" y="754" type="curve" smooth="yes"/>
      <point x="345" y="537" type="line" smooth="yes"/>
      <point x="345" y="522"/>
      <point x="339" y="514"/>
      <point x="328" y="514" type="curve" smooth="yes"/>
      <point x="317" y="514"/>
      <point x="311" y="522"/>
      <point x="311" y="537" type="curve" smooth="yes"/>
      <point x="311" y="754" type="line" smooth="yes"/>
      <point x="311" y="789"/>
      <point x="299" y="800"/>
      <point x="265" y="800" type="curve" smooth="yes"/>
      <point x="63" y="800" type="line" smooth="yes"/>
      <point x="29" y="800"/>
      <point x="17" y="789"/>
      <point x="17" y="754" type="curve" smooth="yes"/>
      <point x="17" y="46" type="line" smooth="yes"/>
      <point x="17" y="11"/>
      <point x="29" y="-1"/>
    </contour>
  </outline>
</glyph>
<glyph name="L" format="2">
  <advance width="514"/>
  <unicode hex="004C"/>
  <anchor x="200" y="0" name="bottom"/>
  <anchor x="166" y="800" name="topright"/>
  <outline>
    <contour>
      <point x="69" y="0" type="curve" smooth="yes"/>
      <point x="469" y="0" type="line" smooth="yes"/>
      <point x="491" y="0"/>
      <point x="503" y="11"/>
      <point x="503" y="46" type="curve" smooth="yes"/>
      <point x="503" y="217" type="line" smooth="yes"/>
      <point x="503" y="251"/>
      <point x="491" y="263"/>
      <point x="469" y="263" type="curve" smooth="yes"/>
      <point x="354" y="263" type="line" smooth="yes"/>
      <point x="337" y="263"/>
      <point x="331" y="269"/>
      <point x="331" y="286" type="curve" smooth="yes"/>
      <point x="331" y="754" type="line" smooth="yes"/>
      <point x="331" y="789"/>
      <point x="320" y="800"/>
      <point x="286" y="800" type="curve" smooth="yes"/>
      <point x="69" y="800" type="line" smooth="yes"/>
      <point x="34" y="800"/>
      <point x="23" y="789"/>
      <point x="23" y="754" type="curve" smooth="yes"/>
      <point x="23" y="46" type="line" smooth="yes"/>
      <point x="23" y="11"/>
      <point x="34" y="0"/>
    </contour>
  </outline>
</glyph>
<glyph name="M" format="2">
  <advance width="800"/>
  <unicode hex="004D"/>
  <outline>
    <contour>
      <point x="63" y="0" type="curve" smooth="yes"/>
      <point x="217" y="0" type="line" smooth="yes"/>
      <point x="251" y="0"/>
      <point x="263" y="11"/>
      <point x="263" y="46" type="curve" smooth="yes"/>
      <point x="263" y="422" type="line" smooth="yes"/>
      <point x="263" y="438"/>
      <point x="267" y="446"/>
      <point x="279" y="446" type="curve" smooth="yes"/>
      <point x="289" y="446"/>
      <point x="297" y="438"/>
      <point x="297" y="406" type="curve" smooth="yes"/>
      <point x="297" y="46" type="line" smooth="yes"/>
      <point x="297" y="21"/>
      <point x="303" y="0"/>
      <point x="326" y="0" type="curve" smooth="yes"/>
      <point x="475" y="0" type="line" smooth="yes"/>
      <point x="498" y="0"/>
      <point x="504" y="23"/>
      <point x="504" y="46" type="curve" smooth="yes"/>
      <point x="503" y="406" type="line" smooth="yes"/>
      <point x="503" y="438"/>
      <point x="512" y="446"/>
      <point x="521" y="446" type="curve" smooth="yes"/>
      <point x="533" y="446"/>
      <point x="537" y="438"/>
      <point x="537" y="422" type="curve" smooth="yes"/>
      <point x="537" y="46" type="line" smooth="yes"/>
      <point x="537" y="11"/>
      <point x="549" y="0"/>
      <point x="583" y="0" type="curve" smooth="yes"/>
      <point x="737" y="0" type="line" smooth="yes"/>
      <point x="772" y="0"/>
      <point x="783" y="11"/>
      <point x="783" y="46" type="curve" smooth="yes"/>
      <point x="783" y="754" type="line" smooth="yes"/>
      <point x="783" y="789"/>
      <point x="772" y="800"/>
      <point x="737" y="800" type="curve" smooth="yes"/>
      <point x="473" y="800" type="line" smooth="yes"/>
      <point x="445" y="800"/>
      <point x="416" y="788"/>
      <point x="416" y="754" type="curve" smooth="yes"/>
      <point x="416" y="387" type="line" smooth="yes"/>
      <point x="416" y="361"/>
      <point x="409" y="354"/>
      <point x="400" y="354" type="curve" smooth="yes"/>
      <point x="391" y="354"/>
      <point x="384" y="361"/>
      <point x="384" y="387" type="curve" smooth="yes"/>
      <point x="381" y="754" type="line" smooth="yes"/>
      <point x="381" y="786"/>
      <point x="352" y="800"/>
      <point x="323" y="800" type="curve" smooth="yes"/>
      <point x="63" y="800" type="line" smooth="yes"/>
      <point x="29" y="800"/>
      <point x="17" y="789"/>
      <point x="17" y="754" type="curve" smooth="yes"/>
      <point x="17" y="46" type="line" smooth="yes"/>
      <point x="17" y="11"/>
      <point x="29" y="0"/>
    </contour>
  </outline>
</glyph>
<glyph name="N" format="2">
  <advance width="686"/>
  <unicode hex="004E"/>
  <anchor x="326" y="0" name="bottom"/>
  <anchor x="331" y="800" name="top"/>
  <outline>
    <contour>
      <point x="63" y="0" type="curve" smooth="yes"/>
      <point x="240" y="0" type="line" smooth="yes"/>
      <point x="274" y="0"/>
      <point x="286" y="11"/>
      <point x="286" y="46" type="curve" smooth="yes"/>
      <point x="286" y="423" type="line" smooth="yes"/>
      <point x="286" y="438"/>
      <point x="291" y="446"/>
      <point x="303" y="446" type="curve" smooth="yes"/>
      <point x="314" y="446"/>
      <point x="320" y="438"/>
      <point x="320" y="423" type="curve" smooth="yes"/>
      <point x="320" y="46" type="line" smooth="yes"/>
      <point x="320" y="11"/>
      <point x="331" y="0"/>
      <point x="366" y="0" type="curve" smooth="yes"/>
      <point x="623" y="0" type="line" smooth="yes"/>
      <point x="657" y="0"/>
      <point x="669" y="11"/>
      <point x="669" y="46" type="curve" smooth="yes"/>
      <point x="669" y="754" type="line" smooth="yes"/>
      <point x="669" y="789"/>
      <point x="657" y="800"/>
      <point x="623" y="800" type="curve" smooth="yes"/>
      <point x="446" y="800" type="line" smooth="yes"/>
      <point x="411" y="800"/>
      <point x="400" y="789"/>
      <point x="400" y="754" type="curve" smooth="yes"/>
      <point x="400" y="377" type="line" smooth="yes"/>
      <point x="400" y="362"/>
      <point x="394" y="354"/>
      <point x="383" y="354" type="curve" smooth="yes"/>
      <point x="371" y="354"/>
      <point x="366" y="362"/>
      <point x="366" y="377" type="curve" smooth="yes"/>
      <point x="366" y="754" type="line" smooth="yes"/>
      <point x="366" y="789"/>
      <point x="354" y="800"/>
      <point x="320" y="800" type="curve" smooth="yes"/>
      <point x="63" y="800" type="line" smooth="yes"/>
      <point x="29" y="800"/>
      <point x="17" y="789"/>
      <point x="17" y="754" type="curve" smooth="yes"/>
      <point x="17" y="46" type="line" smooth="yes"/>
      <point x="17" y="11"/>
      <point x="29" y="0"/>
    </contour>
  </outline>
</glyph>
<glyph name="P" format="2">
  <advance width="537"/>
  <unicode hex="0050"/>
  <outline>
    <contour>
      <point x="63" y="0" type="curve" smooth="yes"/>
      <point x="211" y="0" type="line" smooth="yes"/>
      <point x="246" y="0"/>
      <point x="257" y="11"/>
      <point x="257" y="46" type="curve" smooth="yes"/>
      <point x="257" y="274" type="line" smooth="yes"/>
      <point x="257" y="291"/>
      <point x="263" y="297"/>
      <point x="280" y="297" type="curve" smooth="yes"/>
      <point x="314" y="297" type="line" smooth="yes"/>
      <point x="463" y="297"/>
      <point x="526" y="366"/>
      <point x="526" y="514" type="curve" smooth="yes"/>
      <point x="526" y="572" type="line" smooth="yes"/>
      <point x="526" y="720"/>
      <point x="463" y="800"/>
      <point x="303" y="800" type="curve" smooth="yes"/>
      <point x="63" y="800" type="line" smooth="yes"/>
      <point x="29" y="800"/>
      <point x="17" y="789"/>
      <point x="17" y="754" type="curve" smooth="yes"/>
      <point x="17" y="46" type="line" smooth="yes"/>
      <point x="17" y="11"/>
      <point x="29" y="0"/>
    </contour>
    <contour>
      <point x="273" y="457" type="line" smooth="yes"/>
      <point x="262" y="457"/>
      <point x="257" y="465"/>
      <point x="257" y="480" type="curve" smooth="yes"/>
      <point x="257" y="606" type="line" smooth="yes"/>
      <point x="257" y="621"/>
      <point x="262" y="629"/>
      <point x="273" y="629" type="curve" smooth="yes"/>
      <point x="275" y="629" type="line" smooth="yes"/>
      <point x="287" y="629"/>
      <point x="291" y="621"/>
      <point x="291" y="606" type="curve" smooth="yes"/>
      <point x="291" y="480" type="line" smooth="yes"/>
      <point x="291" y="465"/>
      <point x="287" y="457"/>
      <point x="275" y="457" type="curve" smooth="yes"/>
    </contour>
  </outline>
</glyph>
<glyph name="Q" format="2">
  <advance width="594"/>
  <unicode hex="0051"/>
  <outline>
    <contour>
      <point x="274" y="-11" type="curve" smooth="yes"/>
      <point x="352" y="-11"/>
      <point x="407" y="34"/>
      <point x="430" y="34" type="curve" smooth="yes"/>
      <point x="457" y="34"/>
      <point x="469" y="0"/>
      <point x="537" y="0" type="curve" smooth="yes"/>
      <point x="549" y="0" type="line" smooth="yes"/>
      <point x="583" y="0"/>
      <point x="589" y="11"/>
      <point x="589" y="46" type="curve" smooth="yes"/>
      <point x="589" y="137" type="line" smooth="yes"/>
      <point x="589" y="171"/>
      <point x="583" y="183"/>
      <point x="549" y="183" type="curve" smooth="yes"/>
      <point x="531" y="183"/>
      <point x="526" y="190"/>
      <point x="526" y="206" type="curve" smooth="yes"/>
      <point x="526" y="229"/>
      <point x="549" y="246"/>
      <point x="549" y="331" type="curve" smooth="yes"/>
      <point x="549" y="572" type="line" smooth="yes"/>
      <point x="549" y="732"/>
      <point x="434" y="812"/>
      <point x="274" y="812" type="curve" smooth="yes"/>
      <point x="114" y="812"/>
      <point x="11" y="732"/>
      <point x="11" y="572" type="curve" smooth="yes"/>
      <point x="11" y="229" type="line" smooth="yes"/>
      <point x="11" y="69"/>
      <point x="114" y="-11"/>
    </contour>
    <contour>
      <point x="280" y="160" type="curve" smooth="yes"/>
      <point x="269" y="160"/>
      <point x="263" y="171"/>
      <point x="263" y="183" type="curve" smooth="yes"/>
      <point x="263" y="617" type="line" smooth="yes"/>
      <point x="263" y="629"/>
      <point x="269" y="640"/>
      <point x="280" y="640" type="curve" smooth="yes"/>
      <point x="291" y="640"/>
      <point x="297" y="629"/>
      <point x="297" y="617" type="curve" smooth="yes"/>
      <point x="297" y="183" type="line" smooth="yes"/>
      <point x="297" y="171"/>
      <point x="291" y="160"/>
    </contour>
  </outline>
</glyph>
<glyph name="S" format="2">
  <advance width="652"/>
  <unicode hex="0053"/>
  <anchor x="320" y="0" name="bottom"/>
  <anchor x="328" y="800" name="top"/>
  <outline>
    <contour>
      <point x="320" y="-11" type="curve" smooth="yes"/>
      <point x="480" y="-11"/>
      <point x="640" y="34"/>
      <point x="640" y="240" type="curve" smooth="yes"/>
      <point x="640" y="406"/>
      <point x="597" y="433"/>
      <point x="438" y="479" type="curve" smooth="yes"/>
      <point x="394" y="491" type="line" smooth="yes"/>
      <point x="326" y="511"/>
      <point x="314" y="517"/>
      <point x="314" y="617" type="curve" smooth="yes"/>
      <point x="314" y="632"/>
      <point x="320" y="640"/>
      <point x="331" y="640" type="curve" smooth="yes"/>
      <point x="343" y="640"/>
      <point x="349" y="632"/>
      <point x="349" y="617" type="curve" smooth="yes"/>
      <point x="349" y="572" type="line" smooth="yes"/>
      <point x="349" y="542"/>
      <point x="365" y="526"/>
      <point x="394" y="526" type="curve" smooth="yes"/>
      <point x="585" y="526" type="line" smooth="yes"/>
      <point x="620" y="526"/>
      <point x="631" y="537"/>
      <point x="631" y="572" type="curve" smooth="yes"/>
      <point x="631" y="766"/>
      <point x="522" y="812"/>
      <point x="328" y="812" type="curve" smooth="yes"/>
      <point x="145" y="812"/>
      <point x="23" y="766"/>
      <point x="23" y="560" type="curve" smooth="yes"/>
      <point x="23" y="400"/>
      <point x="90" y="353"/>
      <point x="223" y="320" type="curve" smooth="yes"/>
      <point x="269" y="309" type="line" smooth="yes"/>
      <point x="338" y="291"/>
      <point x="349" y="282"/>
      <point x="349" y="183" type="curve" smooth="yes"/>
      <point x="349" y="168"/>
      <point x="343" y="160"/>
      <point x="331" y="160" type="curve" smooth="yes"/>
      <point x="320" y="160"/>
      <point x="314" y="168"/>
      <point x="314" y="183" type="curve" smooth="yes"/>
      <point x="314" y="229" type="line" smooth="yes"/>
      <point x="314" y="258"/>
      <point x="298" y="274"/>
      <point x="269" y="274" type="curve" smooth="yes"/>
      <point x="57" y="274" type="line" smooth="yes"/>
      <point x="23" y="274"/>
      <point x="11" y="263"/>
      <point x="11" y="229" type="curve" smooth="yes"/>
      <point x="11" y="34"/>
      <point x="160" y="-11"/>
    </contour>
  </outline>
</glyph>
<glyph name="T" format="2">
  <advance width="480"/>
  <unicode hex="0054"/>
  <anchor x="217" y="0" name="bottom"/>
  <anchor x="217" y="800" name="top"/>
  <outline>
    <contour>
      <point x="149" y="0" type="curve" smooth="yes"/>
      <point x="331" y="0" type="line" smooth="yes"/>
      <point x="366" y="0"/>
      <point x="377" y="11"/>
      <point x="377" y="46" type="curve" smooth="yes"/>
      <point x="377" y="491" type="line" smooth="yes"/>
      <point x="377" y="509"/>
      <point x="383" y="514"/>
      <point x="400" y="514" type="curve" smooth="yes"/>
      <point x="423" y="514" type="line" smooth="yes"/>
      <point x="457" y="514"/>
      <point x="469" y="526"/>
      <point x="469" y="560" type="curve" smooth="yes"/>
      <point x="469" y="754" type="line" smooth="yes"/>
      <point x="469" y="789"/>
      <point x="457" y="800"/>
      <point x="423" y="800" type="curve" smooth="yes"/>
      <point x="57" y="800" type="line" smooth="yes"/>
      <point x="22" y="800"/>
      <point x="11" y="789"/>
      <point x="11" y="754" type="curve" smooth="yes"/>
      <point x="11" y="560" type="line" smooth="yes"/>
      <point x="11" y="531"/>
      <point x="23" y="514"/>
      <point x="57" y="514" type="curve" smooth="yes"/>
      <point x="80" y="514" type="line" smooth="yes"/>
      <point x="97" y="514"/>
      <point x="103" y="509"/>
      <point x="103" y="491" type="curve" smooth="yes"/>
      <point x="103" y="46" type="line" smooth="yes"/>
      <point x="103" y="11"/>
      <point x="114" y="0"/>
    </contour>
  </outline>
</glyph>
<glyph name="U" format="2">
  <advance width="647"/>
  <unicode hex="0055"/>
  <anchor x="323" y="800" name="top"/>
  <outline>
    <contour>
      <point x="323" y="-11" type="curve" smooth="yes"/>
      <point x="483" y="-11"/>
      <point x="636" y="57"/>
      <point x="636" y="274" type="curve" smooth="yes"/>
      <point x="636" y="754" type="line" smooth="yes"/>
      <point x="636" y="789"/>
      <point x="624" y="800"/>
      <point x="590" y="800" type="curve" smooth="yes"/>
      <point x="386" y="800" type="line" smooth="yes"/>
      <point x="352" y="800"/>
      <point x="341" y="789"/>
      <point x="341" y="754" type="curve" smooth="yes"/>
      <point x="341" y="183" type="line" smooth="yes"/>
      <point x="341" y="168"/>
      <point x="335" y="160"/>
      <point x="323" y="160" type="curve" smooth="yes"/>
      <point x="312" y="160"/>
      <point x="306" y="168"/>
      <point x="306" y="183" type="curve" smooth="yes"/>
      <point x="306" y="754" type="line" smooth="yes"/>
      <point x="306" y="789"/>
      <point x="295" y="800"/>
      <point x="261" y="800" type="curve" smooth="yes"/>
      <point x="57" y="800" type="line" smooth="yes"/>
      <point x="23" y="800"/>
      <point x="11" y="789"/>
      <point x="11" y="754" type="curve" smooth="yes"/>
      <point x="11" y="274" type="line" smooth="yes"/>
      <point x="11" y="57"/>
      <point x="163" y="-11"/>
    </contour>
  </outline>
</glyph>
<glyph name="V" format="2">
  <advance width="663"/>
  <unicode hex="0056"/>
  <outline>
    <contour>
      <point x="331" y="171" type="curve" smooth="yes"/>
      <point x="320" y="171"/>
      <point x="315" y="179"/>
      <point x="314" y="194" type="curve" smooth="yes"/>
      <point x="291" y="754" type="line" smooth="yes"/>
      <point x="290" y="790"/>
      <point x="280" y="800"/>
      <point x="257" y="800" type="curve" smooth="yes"/>
      <point x="57" y="800" type="line" smooth="yes"/>
      <point x="23" y="800"/>
      <point x="11" y="789"/>
      <point x="11" y="754" type="curve" smooth="yes"/>
      <point x="11" y="732"/>
      <point x="15" y="686"/>
      <point x="17" y="663" type="curve" smooth="yes"/>
      <point x="91" y="46" type="line" smooth="yes"/>
      <point x="96" y="11"/>
      <point x="114" y="0"/>
      <point x="149" y="0" type="curve" smooth="yes"/>
      <point x="514" y="0" type="line" smooth="yes"/>
      <point x="549" y="0"/>
      <point x="567" y="11"/>
      <point x="572" y="46" type="curve" smooth="yes"/>
      <point x="646" y="663" type="line" smooth="yes"/>
      <point x="648" y="686"/>
      <point x="652" y="732"/>
      <point x="652" y="754" type="curve" smooth="yes"/>
      <point x="652" y="789"/>
      <point x="640" y="800"/>
      <point x="606" y="800" type="curve" smooth="yes"/>
      <point x="406" y="800" type="line" smooth="yes"/>
      <point x="383" y="800"/>
      <point x="373" y="790"/>
      <point x="371" y="754" type="curve" smooth="yes"/>
      <point x="349" y="194" type="line" smooth="yes"/>
      <point x="347" y="179"/>
      <point x="343" y="171"/>
    </contour>
  </outline>
</glyph>
<glyph name="W" format="2">
  <advance width="869"/>
  <unicode hex="0057"/>
  <anchor x="389" y="800" name="top"/>
  <outline>
    <contour>
      <point x="109" y="0" type="curve" smooth="yes"/>
      <point x="368" y="0" type="line" smooth="yes"/>
      <point x="397" y="0"/>
      <point x="414" y="17"/>
      <point x="414" y="46" type="curve" smooth="yes"/>
      <point x="417" y="425" type="line" smooth="yes"/>
      <point x="417" y="439"/>
      <point x="423" y="446"/>
      <point x="434" y="446" type="curve" smooth="yes"/>
      <point x="446" y="446"/>
      <point x="451" y="439"/>
      <point x="451" y="425" type="curve" smooth="yes"/>
      <point x="455" y="46" type="line" smooth="yes"/>
      <point x="455" y="17"/>
      <point x="472" y="0"/>
      <point x="501" y="0" type="curve" smooth="yes"/>
      <point x="760" y="0" type="line" smooth="yes"/>
      <point x="789" y="0"/>
      <point x="804" y="11"/>
      <point x="806" y="46" type="curve" smooth="yes"/>
      <point x="853" y="702" type="line" smooth="yes"/>
      <point x="855" y="740"/>
      <point x="857" y="754"/>
      <point x="857" y="766" type="curve" smooth="yes"/>
      <point x="857" y="789"/>
      <point x="846" y="800"/>
      <point x="823" y="800" type="curve" smooth="yes"/>
      <point x="640" y="800" type="line" smooth="yes"/>
      <point x="606" y="800"/>
      <point x="594" y="789"/>
      <point x="594" y="754" type="curve" smooth="yes"/>
      <point x="589" y="377" type="line" smooth="yes"/>
      <point x="589" y="361"/>
      <point x="583" y="354"/>
      <point x="572" y="354" type="curve" smooth="yes"/>
      <point x="560" y="354"/>
      <point x="554" y="361"/>
      <point x="554" y="377" type="curve" smooth="yes"/>
      <point x="560" y="754" type="line" smooth="yes"/>
      <point x="560" y="789"/>
      <point x="549" y="800"/>
      <point x="514" y="800" type="curve" smooth="yes"/>
      <point x="366" y="800" type="line" smooth="yes"/>
      <point x="331" y="800"/>
      <point x="320" y="789"/>
      <point x="320" y="754" type="curve" smooth="yes"/>
      <point x="320" y="377" type="line" smooth="yes"/>
      <point x="320" y="361"/>
      <point x="314" y="354"/>
      <point x="303" y="354" type="curve" smooth="yes"/>
      <point x="291" y="354"/>
      <point x="286" y="360"/>
      <point x="286" y="377" type="curve" smooth="yes"/>
      <point x="286" y="754" type="line" smooth="yes"/>
      <point x="286" y="790"/>
      <point x="274" y="800"/>
      <point x="240" y="800" type="curve" smooth="yes"/>
      <point x="46" y="800" type="line" smooth="yes"/>
      <point x="23" y="800"/>
      <point x="11" y="789"/>
      <point x="11" y="766" type="curve" smooth="yes"/>
      <point x="11" y="754"/>
      <point x="14" y="740"/>
      <point x="16" y="702" type="curve" smooth="yes"/>
      <point x="63" y="46" type="line" smooth="yes"/>
      <point x="65" y="11"/>
      <point x="80" y="0"/>
    </contour>
  </outline>
</glyph>
<glyph name="X" format="2">
  <advance width="629"/>
  <unicode hex="0058"/>
  <outline>
    <contour>
      <point x="46" y="0" type="curve" smooth="yes"/>
      <point x="263" y="0" type="line" smooth="yes"/>
      <point x="286" y="0"/>
      <point x="309" y="11"/>
      <point x="309" y="34" type="curve" smooth="yes"/>
      <point x="306" y="261" type="line" smooth="yes"/>
      <point x="306" y="281"/>
      <point x="313" y="286"/>
      <point x="320" y="286" type="curve" smooth="yes"/>
      <point x="327" y="286"/>
      <point x="334" y="281"/>
      <point x="334" y="259" type="curve" smooth="yes"/>
      <point x="334" y="34" type="line" smooth="yes"/>
      <point x="334" y="11"/>
      <point x="345" y="0"/>
      <point x="368" y="0" type="curve" smooth="yes"/>
      <point x="583" y="0" type="line" smooth="yes"/>
      <point x="606" y="0"/>
      <point x="617" y="11"/>
      <point x="617" y="34" type="curve" smooth="yes"/>
      <point x="617" y="46"/>
      <point x="615" y="62"/>
      <point x="612" y="86" type="curve" smooth="yes"/>
      <point x="577" y="368" type="line" smooth="yes"/>
      <point x="574" y="400"/>
      <point x="573" y="407"/>
      <point x="573" y="418" type="curve" smooth="yes"/>
      <point x="573" y="430"/>
      <point x="573" y="437"/>
      <point x="577" y="469" type="curve" smooth="yes"/>
      <point x="612" y="714" type="line" smooth="yes"/>
      <point x="615" y="738"/>
      <point x="617" y="754"/>
      <point x="617" y="766" type="curve" smooth="yes"/>
      <point x="617" y="789"/>
      <point x="606" y="800"/>
      <point x="583" y="800" type="curve" smooth="yes"/>
      <point x="368" y="800" type="line" smooth="yes"/>
      <point x="345" y="800"/>
      <point x="334" y="789"/>
      <point x="334" y="766" type="curve" smooth="yes"/>
      <point x="334" y="577" type="line" smooth="yes"/>
      <point x="334" y="555"/>
      <point x="327" y="551"/>
      <point x="320" y="551" type="curve" smooth="yes"/>
      <point x="313" y="551"/>
      <point x="306" y="555"/>
      <point x="306" y="576" type="curve" smooth="yes"/>
      <point x="303" y="766" type="line" smooth="yes"/>
      <point x="303" y="789"/>
      <point x="280" y="800"/>
      <point x="257" y="800" type="curve" smooth="yes"/>
      <point x="46" y="800" type="line" smooth="yes"/>
      <point x="23" y="800"/>
      <point x="11" y="789"/>
      <point x="11" y="766" type="curve" smooth="yes"/>
      <point x="11" y="754"/>
      <point x="13" y="738"/>
      <point x="17" y="714" type="curve" smooth="yes"/>
      <point x="63" y="469" type="line" smooth="yes"/>
      <point x="69" y="437"/>
      <point x="69" y="430"/>
      <point x="69" y="418" type="curve" smooth="yes"/>
      <point x="69" y="407"/>
      <point x="69" y="400"/>
      <point x="63" y="368" type="curve" smooth="yes"/>
      <point x="17" y="86" type="line" smooth="yes"/>
      <point x="14" y="62"/>
      <point x="11" y="46"/>
      <point x="11" y="34" type="curve" smooth="yes"/>
      <point x="11" y="11"/>
      <point x="23" y="0"/>
    </contour>
  </outline>
</glyph>
<glyph name="Y" format="2">
  <advance width="572"/>
  <unicode hex="0059"/>
  <anchor x="257" y="800" name="top"/>
  <outline>
    <contour>
      <point x="206" y="0" type="curve" smooth="yes"/>
      <point x="366" y="0" type="line" smooth="yes"/>
      <point x="400" y="0"/>
      <point x="411" y="11"/>
      <point x="411" y="46" type="curve" smooth="yes"/>
      <point x="411" y="310" type="line" smooth="yes"/>
      <point x="411" y="323"/>
      <point x="413" y="339"/>
      <point x="417" y="352" type="curve" smooth="yes"/>
      <point x="554" y="719" type="line" smooth="yes"/>
      <point x="560" y="734"/>
      <point x="560" y="748"/>
      <point x="560" y="766" type="curve" smooth="yes"/>
      <point x="560" y="789"/>
      <point x="549" y="800"/>
      <point x="526" y="800" type="curve" smooth="yes"/>
      <point x="350" y="800" type="line" smooth="yes"/>
      <point x="318" y="800"/>
      <point x="304" y="789"/>
      <point x="304" y="766" type="curve" smooth="yes"/>
      <point x="303" y="606" type="line" smooth="yes"/>
      <point x="303" y="594"/>
      <point x="295" y="586"/>
      <point x="286" y="586" type="curve" smooth="yes"/>
      <point x="275" y="586"/>
      <point x="269" y="594"/>
      <point x="269" y="606" type="curve" smooth="yes"/>
      <point x="265" y="766" type="line" smooth="yes"/>
      <point x="265" y="789"/>
      <point x="251" y="800"/>
      <point x="219" y="800" type="curve" smooth="yes"/>
      <point x="46" y="800" type="line" smooth="yes"/>
      <point x="23" y="800"/>
      <point x="11" y="785"/>
      <point x="11" y="766" type="curve" smooth="yes"/>
      <point x="11" y="748"/>
      <point x="16" y="734"/>
      <point x="22" y="719" type="curve" smooth="yes"/>
      <point x="154" y="352" type="line" smooth="yes"/>
      <point x="159" y="339"/>
      <point x="160" y="323"/>
      <point x="160" y="310" type="curve" smooth="yes"/>
      <point x="160" y="46" type="line" smooth="yes"/>
      <point x="160" y="11"/>
      <point x="171" y="0"/>
    </contour>
  </outline>
</glyph>
<glyph name="Z" format="2">
  <advance width="572"/>
  <unicode hex="005A"/>
  <anchor x="257" y="800" name="top"/>
  <outline>
    <contour>
      <point x="57" y="0" type="curve" smooth="yes"/>
      <point x="514" y="0" type="line" smooth="yes"/>
      <point x="549" y="0"/>
      <point x="560" y="11"/>
      <point x="560" y="46" type="curve" smooth="yes"/>
      <point x="560" y="194" type="line" smooth="yes"/>
      <point x="560" y="229"/>
      <point x="549" y="240"/>
      <point x="513" y="240" type="curve" smooth="yes"/>
      <point x="379" y="240" type="line" smooth="yes"/>
      <point x="367" y="240"/>
      <point x="359" y="249"/>
      <point x="359" y="259" type="curve" smooth="yes"/>
      <point x="359" y="278"/>
      <point x="363" y="298"/>
      <point x="381" y="328" type="curve" smooth="yes"/>
      <point x="519" y="563" type="line" smooth="yes"/>
      <point x="552" y="621"/>
      <point x="560" y="653"/>
      <point x="560" y="692" type="curve" smooth="yes"/>
      <point x="560" y="754" type="line" smooth="yes"/>
      <point x="560" y="789"/>
      <point x="549" y="800"/>
      <point x="514" y="800" type="curve" smooth="yes"/>
      <point x="58" y="800" type="line" smooth="yes"/>
      <point x="23" y="800"/>
      <point x="11" y="789"/>
      <point x="11" y="754" type="curve" smooth="yes"/>
      <point x="11" y="606" type="line" smooth="yes"/>
      <point x="11" y="577"/>
      <point x="23" y="560"/>
      <point x="57" y="560" type="curve" smooth="yes"/>
      <point x="181" y="560" type="line" smooth="yes"/>
      <point x="207" y="560"/>
      <point x="215" y="557"/>
      <point x="215" y="544" type="curve" smooth="yes"/>
      <point x="215" y="527"/>
      <point x="208" y="511"/>
      <point x="199" y="496" type="curve" smooth="yes"/>
      <point x="55" y="258" type="line" smooth="yes"/>
      <point x="29" y="215"/>
      <point x="11" y="175"/>
      <point x="11" y="135" type="curve" smooth="yes"/>
      <point x="11" y="46" type="line" smooth="yes"/>
      <point x="11" y="11"/>
      <point x="23" y="0"/>
    </contour>
  </outline>
</glyph>
<glyph name="grave" format="2">
  <advance width="686"/>
  <unicode hex="0060"/>
  <outline>
    <contour>
      <point x="246" y="680" type="curve" smooth="yes"/>
      <point x="257" y="680" type="line" smooth="yes"/>
      <point x="269" y="680"/>
      <point x="275" y="687"/>
      <point x="275" y="698" type="curve" smooth="yes"/>
      <point x="275" y="704"/>
      <point x="273" y="710"/>
      <point x="270" y="713" type="curve" smooth="yes"/>
      <point x="191" y="808" type="line" smooth="yes"/>
      <point x="178" y="823"/>
      <point x="171" y="829"/>
      <point x="149" y="829" type="curve" smooth="yes"/>
      <point x="102" y="829" type="line" smooth="yes"/>
      <point x="88" y="829"/>
      <point x="80" y="821"/>
      <point x="80" y="807" type="curve" smooth="yes"/>
      <point x="80" y="801"/>
      <point x="82" y="797"/>
      <point x="86" y="793" type="curve" smooth="yes"/>
      <point x="210" y="692" type="line" smooth="yes"/>
      <point x="223" y="681"/>
      <point x="231" y="680"/>
    </contour>
  </outline>
</glyph>
<glyph name="braceleft" format="2">
  <advance width="366"/>
  <unicode hex="007B"/>
  <outline>
    <contour>
      <point x="286" y="0" type="curve" smooth="yes"/>
      <point x="297" y="0" type="line" smooth="yes"/>
      <point x="331" y="0"/>
      <point x="343" y="11"/>
      <point x="343" y="46" type="curve" smooth="yes"/>
      <point x="343" y="114" type="line" smooth="yes"/>
      <point x="343" y="149"/>
      <point x="331" y="160"/>
      <point x="297" y="160" type="curve" smooth="yes"/>
      <point x="286" y="160" type="line" smooth="yes"/>
      <point x="251" y="160"/>
      <point x="240" y="177"/>
      <point x="240" y="229" type="curve" smooth="yes"/>
      <point x="240" y="331" type="line" smooth="yes"/>
      <point x="240" y="354"/>
      <point x="231" y="377"/>
      <point x="194" y="389" type="curve" smooth="yes"/>
      <point x="189" y="390"/>
      <point x="183" y="393"/>
      <point x="183" y="400" type="curve" smooth="yes"/>
      <point x="183" y="407"/>
      <point x="191" y="410"/>
      <point x="194" y="411" type="curve" smooth="yes"/>
      <point x="231" y="423"/>
      <point x="240" y="446"/>
      <point x="240" y="469" type="curve" smooth="yes"/>
      <point x="240" y="572" type="line" smooth="yes"/>
      <point x="240" y="606"/>
      <point x="251" y="640"/>
      <point x="286" y="640" type="curve" smooth="yes"/>
      <point x="297" y="640" type="line" smooth="yes"/>
      <point x="331" y="640"/>
      <point x="343" y="652"/>
      <point x="343" y="686" type="curve" smooth="yes"/>
      <point x="343" y="754" type="line" smooth="yes"/>
      <point x="343" y="789"/>
      <point x="331" y="800"/>
      <point x="297" y="800" type="curve" smooth="yes"/>
      <point x="286" y="800" type="line" smooth="yes"/>
      <point x="114" y="800"/>
      <point x="91" y="743"/>
      <point x="91" y="572" type="curve" smooth="yes"/>
      <point x="91" y="514" type="line" smooth="yes"/>
      <point x="91" y="480"/>
      <point x="69" y="457"/>
      <point x="34" y="457" type="curve" smooth="yes"/>
      <point x="17" y="457"/>
      <point x="11" y="451"/>
      <point x="11" y="434" type="curve" smooth="yes"/>
      <point x="11" y="400" type="line"/>
      <point x="11" y="366" type="line" smooth="yes"/>
      <point x="11" y="349"/>
      <point x="17" y="343"/>
      <point x="34" y="343" type="curve" smooth="yes"/>
      <point x="69" y="343"/>
      <point x="91" y="320"/>
      <point x="91" y="286" type="curve" smooth="yes"/>
      <point x="91" y="229" type="line" smooth="yes"/>
      <point x="91" y="57"/>
      <point x="114" y="0"/>
    </contour>
  </outline>
</glyph>
<glyph name="asciitilde" format="2">
  <advance width="686"/>
  <unicode hex="007E"/>
  <outline>
    <contour>
      <point x="63" y="628" type="curve" smooth="yes"/>
      <point x="101" y="628"/>
      <point x="119" y="685"/>
      <point x="150" y="685" type="curve" smooth="yes"/>
      <point x="194" y="685"/>
      <point x="214" y="644"/>
      <point x="256" y="644" type="curve" smooth="yes"/>
      <point x="298" y="644"/>
      <point x="331" y="722"/>
      <point x="331" y="742" type="curve" smooth="yes"/>
      <point x="331" y="770"/>
      <point x="328" y="782"/>
      <point x="305" y="782" type="curve" smooth="yes"/>
      <point x="289" y="782"/>
      <point x="258" y="742"/>
      <point x="246" y="742" type="curve" smooth="yes"/>
      <point x="201" y="742"/>
      <point x="183" y="788"/>
      <point x="138" y="788" type="curve" smooth="yes"/>
      <point x="104" y="788"/>
      <point x="34" y="696"/>
      <point x="34" y="673" type="curve" smooth="yes"/>
      <point x="34" y="647"/>
      <point x="41" y="628"/>
    </contour>
  </outline>
</glyph>
<glyph name="yen" format="2">
  <advance width="572"/>
  <unicode hex="00A5"/>
  <outline>
    <contour>
      <point x="229" y="0" type="curve" smooth="yes"/>
      <point x="343" y="0" type="line" smooth="yes"/>
      <point x="377" y="0"/>
      <point x="389" y="11"/>
      <point x="389" y="46" type="curve" smooth="yes"/>
      <point x="389" y="321" type="line" smooth="yes"/>
      <point x="389" y="335"/>
      <point x="389" y="351"/>
      <point x="394" y="363" type="curve" smooth="yes"/>
      <point x="550" y="719" type="line" smooth="yes"/>
      <point x="557" y="734"/>
      <point x="560" y="748"/>
      <point x="560" y="766" type="curve" smooth="yes"/>
      <point x="560" y="789"/>
      <point x="549" y="800"/>
      <point x="526" y="800" type="curve" smooth="yes"/>
      <point x="406" y="800" type="line" smooth="yes"/>
      <point x="374" y="800"/>
      <point x="368" y="788"/>
      <point x="360" y="766" type="curve" smooth="yes"/>
      <point x="303" y="602" type="line" smooth="yes"/>
      <point x="299" y="591"/>
      <point x="295" y="583"/>
      <point x="286" y="583" type="curve" smooth="yes"/>
      <point x="275" y="583"/>
      <point x="272" y="591"/>
      <point x="269" y="602" type="curve" smooth="yes"/>
      <point x="211" y="766" type="line" smooth="yes"/>
      <point x="203" y="788"/>
      <point x="198" y="800"/>
      <point x="166" y="800" type="curve" smooth="yes"/>
      <point x="46" y="800" type="line" smooth="yes"/>
      <point x="23" y="800"/>
      <point x="11" y="785"/>
      <point x="11" y="766" type="curve" smooth="yes"/>
      <point x="11" y="748"/>
      <point x="15" y="734"/>
      <point x="22" y="719" type="curve" smooth="yes"/>
      <point x="177" y="363" type="line" smooth="yes"/>
      <point x="183" y="351"/>
      <point x="183" y="335"/>
      <point x="183" y="321" type="curve" smooth="yes"/>
      <point x="183" y="46" type="line" smooth="yes"/>
      <point x="183" y="11"/>
      <point x="194" y="0"/>
    </contour>
    <contour>
      <point x="57" y="95" type="curve" smooth="yes"/>
      <point x="514" y="95" type="line" smooth="yes"/>
      <point x="549" y="95"/>
      <point x="560" y="106"/>
      <point x="560" y="141" type="curve" smooth="yes"/>
      <point x="560" y="209" type="line" smooth="yes"/>
      <point x="560" y="243"/>
      <point x="549" y="255"/>
      <point x="514" y="255" type="curve" smooth="yes"/>
      <point x="57" y="255" type="line" smooth="yes"/>
      <point x="23" y="255"/>
      <point x="11" y="243"/>
      <point x="11" y="209" type="curve" smooth="yes"/>
      <point x="11" y="141" type="line" smooth="yes"/>
      <point x="11" y="106"/>
      <point x="23" y="95"/>
    </contour>
    <contour>
      <point x="57" y="321" type="curve" smooth="yes"/>
      <point x="514" y="321" type="line" smooth="yes"/>
      <point x="549" y="321"/>
      <point x="560" y="333"/>
      <point x="560" y="367" type="curve" smooth="yes"/>
      <point x="560" y="435" type="line" smooth="yes"/>
      <point x="560" y="470"/>
      <point x="549" y="481"/>
      <point x="514" y="481" type="curve" smooth="yes"/>
      <point x="57" y="481" type="line" smooth="yes"/>
      <point x="23" y="481"/>
      <point x="11" y="470"/>
      <point x="11" y="435" type="curve" smooth="yes"/>
      <point x="11" y="367" type="line" smooth="yes"/>
      <point x="11" y="333"/>
      <point x="23" y="321"/>
    </contour>
  </outline>
</glyph>
<glyph name="registered" format="2">
  <advance width="469"/>
  <unicode hex="00AE"/>
  <outline>
    <contour>
      <point x="234" y="367" type="curve" smooth="yes"/>
      <point x="357" y="367"/>
      <point x="457" y="466"/>
      <point x="457" y="590" type="curve" smooth="yes"/>
      <point x="457" y="712"/>
      <point x="357" y="812"/>
      <point x="234" y="812" type="curve" smooth="yes"/>
      <point x="111" y="812"/>
      <point x="11" y="712"/>
      <point x="11" y="590" type="curve" smooth="yes"/>
      <point x="11" y="466"/>
      <point x="111" y="367"/>
    </contour>
    <contour>
      <point x="234" y="418" type="curve" smooth="yes"/>
      <point x="138" y="418"/>
      <point x="61" y="496"/>
      <point x="61" y="591" type="curve" smooth="yes"/>
      <point x="61" y="686"/>
      <point x="138" y="765"/>
      <point x="234" y="765" type="curve" smooth="yes"/>
      <point x="328" y="765"/>
      <point x="408" y="686"/>
      <point x="408" y="591" type="curve" smooth="yes"/>
      <point x="408" y="496"/>
      <point x="328" y="418"/>
    </contour>
    <contour>
      <point x="161" y="471" type="curve" smooth="yes"/>
      <point x="197" y="471" type="line" smooth="yes"/>
      <point x="207" y="471"/>
      <point x="210" y="474"/>
      <point x="210" y="485" type="curve" smooth="yes"/>
      <point x="210" y="562" type="line" smooth="yes"/>
      <point x="210" y="567"/>
      <point x="211" y="569"/>
      <point x="218" y="569" type="curve" smooth="yes"/>
      <point x="241" y="569" type="line" smooth="yes"/>
      <point x="259" y="569"/>
      <point x="266" y="562"/>
      <point x="266" y="542" type="curve" smooth="yes"/>
      <point x="266" y="499" type="line" smooth="yes"/>
      <point x="266" y="481"/>
      <point x="271" y="471"/>
      <point x="288" y="471" type="curve" smooth="yes"/>
      <point x="319" y="471" type="line" smooth="yes"/>
      <point x="329" y="471"/>
      <point x="334" y="474"/>
      <point x="334" y="480" type="curve" smooth="yes"/>
      <point x="334" y="486"/>
      <point x="329" y="486"/>
      <point x="329" y="499" type="curve" smooth="yes"/>
      <point x="329" y="544" type="line" smooth="yes"/>
      <point x="329" y="565"/>
      <point x="325" y="577"/>
      <point x="313" y="586" type="curve" smooth="yes"/>
      <point x="306" y="592"/>
      <point x="305" y="592"/>
      <point x="305" y="594" type="curve" smooth="yes"/>
      <point x="305" y="597"/>
      <point x="309" y="597"/>
      <point x="313" y="601" type="curve" smooth="yes"/>
      <point x="323" y="612"/>
      <point x="329" y="624"/>
      <point x="329" y="642" type="curve" smooth="yes"/>
      <point x="329" y="649" type="line" smooth="yes"/>
      <point x="329" y="696"/>
      <point x="302" y="717"/>
      <point x="256" y="717" type="curve" smooth="yes"/>
      <point x="161" y="717" type="line" smooth="yes"/>
      <point x="151" y="717"/>
      <point x="146" y="713"/>
      <point x="146" y="703" type="curve" smooth="yes"/>
      <point x="146" y="485" type="line" smooth="yes"/>
      <point x="146" y="474"/>
      <point x="151" y="471"/>
    </contour>
    <contour>
      <point x="218" y="618" type="line" smooth="yes"/>
      <point x="211" y="618"/>
      <point x="210" y="620"/>
      <point x="210" y="625" type="curve" smooth="yes"/>
      <point x="210" y="657" type="line" smooth="yes"/>
      <point x="210" y="662"/>
      <point x="211" y="664"/>
      <point x="218" y="664" type="curve" smooth="yes"/>
      <point x="241" y="664" type="line" smooth="yes"/>
      <point x="259" y="664"/>
      <point x="266" y="656"/>
      <point x="266" y="641" type="curve" smooth="yes"/>
      <point x="266" y="640" type="line" smooth="yes"/>
      <point x="266" y="628"/>
      <point x="259" y="618"/>
      <point x="241" y="618" type="curve" smooth="yes"/>
    </contour>
  </outline>
</glyph>
<glyph name="Oslash" format="2">
  <advance width="542"/>
  <unicode hex="00D8"/>
  <outline>
    <contour>
      <point x="271" y="-11" type="curve" smooth="yes"/>
      <point x="431" y="-11"/>
      <point x="522" y="80"/>
      <point x="522" y="229" type="curve" smooth="yes"/>
      <point x="522" y="572" type="line" smooth="yes"/>
      <point x="522" y="720"/>
      <point x="431" y="812"/>
      <point x="271" y="812" type="curve" smooth="yes"/>
      <point x="111" y="812"/>
      <point x="19" y="720"/>
      <point x="19" y="572" type="curve" smooth="yes"/>
      <point x="19" y="229" type="line" smooth="yes"/>
      <point x="19" y="80"/>
      <point x="111" y="-11"/>
    </contour>
    <contour>
      <point x="271" y="160" type="curve" smooth="yes"/>
      <point x="237" y="160"/>
      <point x="225" y="183"/>
      <point x="225" y="217" type="curve" smooth="yes"/>
      <point x="225" y="583" type="line" smooth="yes"/>
      <point x="225" y="617"/>
      <point x="237" y="640"/>
      <point x="271" y="640" type="curve" smooth="yes"/>
      <point x="305" y="640"/>
      <point x="317" y="617"/>
      <point x="317" y="583" type="curve" smooth="yes"/>
      <point x="317" y="217" type="line" smooth="yes"/>
      <point x="317" y="183"/>
      <point x="305" y="160"/>
    </contour>
    <contour>
      <point x="23" y="0" type="line"/>
      <point x="74" y="0" type="line"/>
      <point x="519" y="846" type="line"/>
      <point x="467" y="846" type="line"/>
    </contour>
  </outline>
</glyph>
<glyph name="Eng" format="2">
  <advance width="568"/>
  <unicode hex="014A"/>
  <outline>
    <contour>
      <point x="69" y="0" type="curve" smooth="yes"/>
      <point x="171" y="0" type="line" smooth="yes"/>
      <point x="206" y="0"/>
      <point x="217" y="11"/>
      <point x="217" y="46" type="curve" smooth="yes"/>
      <point x="217" y="423" type="line" smooth="yes"/>
      <point x="217" y="441"/>
      <point x="224" y="446"/>
      <point x="232" y="446" type="curve" smooth="yes"/>
      <point x="239" y="446"/>
      <point x="245" y="439"/>
      <point x="247" y="423" type="curve" smooth="yes"/>
      <point x="267" y="297"/>
      <point x="309" y="195"/>
      <point x="309" y="46" type="curve" smooth="yes"/>
      <point x="309" y="-63" type="line" smooth="yes"/>
      <point x="309" y="-80"/>
      <point x="303" y="-86"/>
      <point x="286" y="-86" type="curve" smooth="yes"/>
      <point x="240" y="-86" type="line" smooth="yes"/>
      <point x="206" y="-86"/>
      <point x="194" y="-97"/>
      <point x="194" y="-131" type="curve" smooth="yes"/>
      <point x="194" y="-211" type="line" smooth="yes"/>
      <point x="194" y="-246"/>
      <point x="206" y="-257"/>
      <point x="240" y="-257" type="curve" smooth="yes"/>
      <point x="375" y="-257" type="line" smooth="yes"/>
      <point x="535" y="-257"/>
      <point x="545" y="-189"/>
      <point x="545" y="-29" type="curve" smooth="yes"/>
      <point x="545" y="754" type="line" smooth="yes"/>
      <point x="545" y="789"/>
      <point x="534" y="800"/>
      <point x="499" y="800" type="curve" smooth="yes"/>
      <point x="397" y="800" type="line" smooth="yes"/>
      <point x="362" y="800"/>
      <point x="351" y="789"/>
      <point x="351" y="754" type="curve" smooth="yes"/>
      <point x="351" y="377" type="line" smooth="yes"/>
      <point x="351" y="361"/>
      <point x="346" y="354"/>
      <point x="336" y="354" type="curve" smooth="yes"/>
      <point x="327" y="354"/>
      <point x="323" y="363"/>
      <point x="321" y="377" type="curve" smooth="yes"/>
      <point x="259" y="754" type="line" smooth="yes"/>
      <point x="253" y="794"/>
      <point x="234" y="800"/>
      <point x="206" y="800" type="curve" smooth="yes"/>
      <point x="69" y="800" type="line" smooth="yes"/>
      <point x="34" y="800"/>
      <point x="23" y="789"/>
      <point x="23" y="754" type="curve" smooth="yes"/>
      <point x="23" y="46" type="line" smooth="yes"/>
      <point x="23" y="11"/>
      <point x="34" y="0"/>
    </contour>
  </outline>
</glyph>
<glyph name="Scedilla" format="2">
  <advance width="537"/>
  <unicode hex="015E"/>
  <outline>
    <contour>
      <point x="11" y="217" type="curve" smooth="yes"/>
      <point x="11" y="61"/>
      <point x="87" y="0"/>
      <point x="222" y="-10" type="curve"/>
      <point x="241" y="-22"/>
      <point x="250" y="-41"/>
      <point x="250" y="-57" type="curve" smooth="yes"/>
      <point x="250" y="-80"/>
      <point x="218" y="-95"/>
      <point x="182" y="-95" type="curve" smooth="yes"/>
      <point x="166" y="-95"/>
      <point x="159" y="-104"/>
      <point x="159" y="-118" type="curve" smooth="yes"/>
      <point x="159" y="-176" type="line" smooth="yes"/>
      <point x="159" y="-187"/>
      <point x="166" y="-199"/>
      <point x="182" y="-199" type="curve" smooth="yes"/>
      <point x="294" y="-199"/>
      <point x="355" y="-168"/>
      <point x="355" y="-105" type="curve" smooth="yes"/>
      <point x="355" y="-43"/>
      <point x="303" y="-34"/>
      <point x="303" y="-11" type="curve" smooth="yes"/>
      <point x="303" y="-10" type="line"/>
      <point x="440" y="-1"/>
      <point x="526" y="59"/>
      <point x="526" y="206" type="curve" smooth="yes"/>
      <point x="526" y="323"/>
      <point x="480" y="379"/>
      <point x="362" y="453" type="curve" smooth="yes"/>
      <point x="240" y="529"/>
      <point x="229" y="550"/>
      <point x="229" y="594" type="curve" smooth="yes"/>
      <point x="229" y="623"/>
      <point x="241" y="640"/>
      <point x="270" y="640" type="curve" smooth="yes"/>
      <point x="298" y="640"/>
      <point x="311" y="623"/>
      <point x="311" y="594" type="curve" smooth="yes"/>
      <point x="311" y="583" type="line" smooth="yes"/>
      <point x="311" y="549"/>
      <point x="322" y="537"/>
      <point x="357" y="537" type="curve" smooth="yes"/>
      <point x="471" y="537" type="line" smooth="yes"/>
      <point x="505" y="537"/>
      <point x="517" y="549"/>
      <point x="517" y="583" type="curve" smooth="yes"/>
      <point x="517" y="732"/>
      <point x="431" y="812"/>
      <point x="271" y="812" type="curve" smooth="yes"/>
      <point x="111" y="812"/>
      <point x="23" y="732"/>
      <point x="23" y="594" type="curve" smooth="yes"/>
      <point x="23" y="470"/>
      <point x="95" y="387"/>
      <point x="206" y="315" type="curve" smooth="yes"/>
      <point x="274" y="271"/>
      <point x="320" y="248"/>
      <point x="320" y="206" type="curve" smooth="yes"/>
      <point x="320" y="179"/>
      <point x="307" y="160"/>
      <point x="269" y="160" type="curve" smooth="yes"/>
      <point x="231" y="160"/>
      <point x="217" y="179"/>
      <point x="217" y="206" type="curve" smooth="yes"/>
      <point x="217" y="217" type="line" smooth="yes"/>
      <point x="217" y="251"/>
      <point x="206" y="263"/>
      <point x="171" y="263" type="curve" smooth="yes"/>
      <point x="57" y="263" type="line" smooth="yes"/>
      <point x="23" y="263"/>
      <point x="11" y="251"/>
    </contour>
  </outline>
</glyph>
<glyph name="caron" format="2">
  <advance width="686"/>
  <unicode hex="02C7"/>
  <outline>
    <contour>
      <point x="463" y="754" type="curve" smooth="yes"/>
      <point x="446" y="754" type="line" smooth="yes"/>
      <point x="429" y="754"/>
      <point x="419" y="744"/>
      <point x="400" y="732" type="curve" smooth="yes"/>
      <point x="354" y="703" type="line" smooth="yes"/>
      <point x="344" y="696"/>
      <point x="338" y="693"/>
      <point x="331" y="693" type="curve" smooth="yes"/>
      <point x="325" y="693"/>
      <point x="317" y="696"/>
      <point x="309" y="702" type="curve" smooth="yes"/>
      <point x="263" y="732" type="line" smooth="yes"/>
      <point x="245" y="743"/>
      <point x="234" y="754"/>
      <point x="217" y="754" type="curve" smooth="yes"/>
      <point x="200" y="754" type="line" smooth="yes"/>
      <point x="185" y="754"/>
      <point x="177" y="749"/>
      <point x="177" y="738" type="curve" smooth="yes"/>
      <point x="177" y="725"/>
      <point x="186" y="710"/>
      <point x="200" y="692" type="curve" smooth="yes"/>
      <point x="247" y="629" type="line" smooth="yes"/>
      <point x="265" y="605"/>
      <point x="278" y="594"/>
      <point x="297" y="594" type="curve" smooth="yes"/>
      <point x="366" y="594" type="line" smooth="yes"/>
      <point x="385" y="594"/>
      <point x="405" y="605"/>
      <point x="421" y="629" type="curve" smooth="yes"/>
      <point x="464" y="692" type="line" smooth="yes"/>
      <point x="477" y="710"/>
      <point x="486" y="724"/>
      <point x="486" y="738" type="curve" smooth="yes"/>
      <point x="486" y="749"/>
      <point x="478" y="754"/>
    </contour>
  </outline>
</glyph>
<glyph name="breve" format="2">
  <advance width="686"/>
  <unicode hex="02D8"/>
  <outline>
    <contour>
      <point x="343" y="640" type="curve" smooth="yes"/>
      <point x="434" y="640"/>
      <point x="480" y="686"/>
      <point x="480" y="754" type="curve" smooth="yes"/>
      <point x="480" y="772"/>
      <point x="474" y="777"/>
      <point x="457" y="777" type="curve" smooth="yes"/>
      <point x="407" y="777" type="line" smooth="yes"/>
      <point x="390" y="777"/>
      <point x="384" y="772"/>
      <point x="384" y="754" type="curve" smooth="yes"/>
      <point x="384" y="732"/>
      <point x="366" y="720"/>
      <point x="343" y="720" type="curve" smooth="yes"/>
      <point x="320" y="720"/>
      <point x="302" y="732"/>
      <point x="302" y="754" type="curve" smooth="yes"/>
      <point x="302" y="772"/>
      <point x="296" y="777"/>
      <point x="279" y="777" type="curve" smooth="yes"/>
      <point x="229" y="777" type="line" smooth="yes"/>
      <point x="211" y="777"/>
      <point x="206" y="772"/>
      <point x="206" y="754" type="curve" smooth="yes"/>
      <point x="206" y="686"/>
      <point x="251" y="640"/>
    </contour>
  </outline>
</glyph>
<glyph name="ogonek" format="2">
  <advance width="686"/>
  <unicode hex="02DB"/>
  <outline>
    <contour>
      <point x="418" y="-233" type="curve" smooth="yes"/>
      <point x="434" y="-233"/>
      <point x="441" y="-222"/>
      <point x="441" y="-210" type="curve" smooth="yes"/>
      <point x="441" y="-152" type="line" smooth="yes"/>
      <point x="441" y="-138"/>
      <point x="434" y="-129"/>
      <point x="418" y="-129" type="curve" smooth="yes"/>
      <point x="382" y="-129"/>
      <point x="350" y="-114"/>
      <point x="350" y="-91" type="curve" smooth="yes"/>
      <point x="350" y="-74"/>
      <point x="360" y="-61"/>
      <point x="376" y="-61" type="curve" smooth="yes"/>
      <point x="402" y="-61"/>
      <point x="411" y="-55"/>
      <point x="411" y="-40" type="curve" smooth="yes"/>
      <point x="411" y="-26"/>
      <point x="399" y="-18"/>
      <point x="379" y="-18" type="curve" smooth="yes"/>
      <point x="357" y="-18" type="line" smooth="yes"/>
      <point x="295" y="-18"/>
      <point x="245" y="-78"/>
      <point x="245" y="-139" type="curve" smooth="yes"/>
      <point x="245" y="-202"/>
      <point x="306" y="-233"/>
    </contour>
  </outline>
</glyph>
<glyph name="endash" format="2">
  <advance width="572"/>
  <unicode hex="2013"/>
  <outline>
    <contour>
      <point x="69" y="320" type="curve" smooth="yes"/>
      <point x="503" y="320" type="line" smooth="yes"/>
      <point x="537" y="320"/>
      <point x="549" y="331"/>
      <point x="549" y="366" type="curve" smooth="yes"/>
      <point x="549" y="434" type="line" smooth="yes"/>
      <point x="549" y="469"/>
      <point x="537" y="480"/>
      <point x="503" y="480" type="curve" smooth="yes"/>
      <point x="69" y="480" type="line" smooth="yes"/>
      <point x="34" y="480"/>
      <point x="23" y="469"/>
      <point x="23" y="434" type="curve" smooth="yes"/>
      <point x="23" y="366" type="line" smooth="yes"/>
      <point x="23" y="331"/>
      <point x="34" y="320"/>
    </contour>
  </outline>
</glyph>
<glyph name="emdash" format="2">
  <advance width="686"/>
  <unicode hex="2014"/>
  <outline>
    <contour>
      <point x="69" y="320" type="curve" smooth="yes"/>
      <point x="617" y="320" type="line" smooth="yes"/>
      <point x="652" y="320"/>
      <point x="663" y="331"/>
      <point x="663" y="366" type="curve" smooth="yes"/>
      <point x="663" y="434" type="line" smooth="yes"/>
      <point x="663" y="469"/>
      <point x="652" y="480"/>
      <point x="617" y="480" type="curve" smooth="yes"/>
      <point x="69" y="480" type="line" smooth="yes"/>
      <point x="34" y="480"/>
      <point x="23" y="469"/>
      <point x="23" y="434" type="curve" smooth="yes"/>
      <point x="23" y="366" type="line" smooth="yes"/>
      <point x="23" y="331"/>
      <point x="34" y="320"/>
    </contour>
  </outline>
</glyph>
<glyph name="euro" format="2">
  <advance width="640"/>
  <unicode hex="20AC"/>
  <outline>
    <contour>
      <point x="328" y="-11" type="curve" smooth="yes"/>
      <point x="545" y="-11"/>
      <point x="606" y="103"/>
      <point x="606" y="263" type="curve" smooth="yes"/>
      <point x="606" y="297" type="line" smooth="yes"/>
      <point x="606" y="331"/>
      <point x="594" y="343"/>
      <point x="560" y="343" type="curve" smooth="yes"/>
      <point x="457" y="343" type="line" smooth="yes"/>
      <point x="423" y="343"/>
      <point x="411" y="331"/>
      <point x="411" y="297" type="curve" smooth="yes"/>
      <point x="411" y="286" type="line" smooth="yes"/>
      <point x="411" y="206"/>
      <point x="400" y="160"/>
      <point x="320" y="160" type="curve" smooth="yes"/>
      <point x="251" y="160"/>
      <point x="240" y="206"/>
      <point x="240" y="286" type="curve" smooth="yes"/>
      <point x="240" y="514" type="line" smooth="yes"/>
      <point x="240" y="594"/>
      <point x="251" y="640"/>
      <point x="320" y="640" type="curve" smooth="yes"/>
      <point x="400" y="640"/>
      <point x="411" y="594"/>
      <point x="411" y="514" type="curve" smooth="yes"/>
      <point x="411" y="503" type="line" smooth="yes"/>
      <point x="411" y="469"/>
      <point x="423" y="457"/>
      <point x="457" y="457" type="curve" smooth="yes"/>
      <point x="560" y="457" type="line" smooth="yes"/>
      <point x="594" y="457"/>
      <point x="606" y="469"/>
      <point x="606" y="503" type="curve" smooth="yes"/>
      <point x="606" y="537" type="line" smooth="yes"/>
      <point x="606" y="720"/>
      <point x="537" y="812"/>
      <point x="320" y="812" type="curve" smooth="yes"/>
      <point x="103" y="812"/>
      <point x="34" y="720"/>
      <point x="34" y="503" type="curve" smooth="yes"/>
      <point x="34" y="297" type="line" smooth="yes"/>
      <point x="34" y="80"/>
      <point x="111" y="-11"/>
    </contour>
    <contour>
      <point x="0" y="432" type="curve" smooth="yes"/>
      <point x="320" y="432" type="line" smooth="yes"/>
      <point x="354" y="432"/>
      <point x="366" y="443"/>
      <point x="366" y="478" type="curve" smooth="yes"/>
      <point x="366" y="480" type="line" smooth="yes"/>
      <point x="366" y="514"/>
      <point x="354" y="526"/>
      <point x="320" y="526" type="curve" smooth="yes"/>
      <point x="0" y="526" type="line" smooth="yes"/>
      <point x="-34" y="526"/>
      <point x="-46" y="514"/>
      <point x="-46" y="480" type="curve" smooth="yes"/>
      <point x="-46" y="478" type="line" smooth="yes"/>
      <point x="-46" y="443"/>
      <point x="-34" y="432"/>
    </contour>
    <contour>
      <point x="0" y="272" type="curve" smooth="yes"/>
      <point x="320" y="272" type="line" smooth="yes"/>
      <point x="354" y="272"/>
      <point x="366" y="283"/>
      <point x="366" y="318" type="curve" smooth="yes"/>
      <point x="366" y="320" type="line" smooth="yes"/>
      <point x="366" y="354"/>
      <point x="354" y="366"/>
      <point x="320" y="366" type="curve" smooth="yes"/>
      <point x="0" y="366" type="line" smooth="yes"/>
      <point x="-34" y="366"/>
      <point x="-46" y="354"/>
      <point x="-46" y="320" type="curve" smooth="yes"/>
      <point x="-46" y="318" type="line" smooth="yes"/>
      <point x="-46" y="283"/>
      <point x="-34" y="272"/>
    </contour>
  </outline>
</glyph>
<glyph name="dotaccentcomb.case" format="2">
  <anchor x="146" y="800" name="_top"/>
  <anchor x="146" y="973" name="top"/>
  <outline>
    <contour>
      <point x="90" y="846" type="curve" smooth="yes"/>
      <point x="201" y="846" type="line" smooth="yes"/>
      <point x="216" y="846"/>
      <point x="227" y="856"/>
      <point x="227" y="871" type="curve" smooth="yes"/>
      <point x="227" y="949" type="line" smooth="yes"/>
      <point x="227" y="964"/>
      <point x="216" y="975"/>
      <point x="201" y="975" type="curve" smooth="yes"/>
      <point x="90" y="975" type="line" smooth="yes"/>
      <point x="75" y="975"/>
      <point x="65" y="964"/>
      <point x="65" y="949" type="curve" smooth="yes"/>
      <point x="65" y="871" type="line" smooth="yes"/>
      <point x="65" y="856"/>
      <point x="75" y="846"/>
    </contour>
  </outline>
</glyph>
<glyph name="macroncomb.case" format="2">
  <anchor x="146" y="800" name="_top"/>
  <anchor x="146" y="973" name="top"/>
  <outline>
    <contour>
      <point x="33" y="846" type="curve" smooth="yes"/>
      <point x="258" y="846" type="line" smooth="yes"/>
      <point x="273" y="846"/>
      <point x="285" y="856"/>
      <point x="285" y="871" type="curve" smooth="yes"/>
      <point x="285" y="949" type="line" smooth="yes"/>
      <point x="285" y="964"/>
      <point x="273" y="975"/>
      <point x="258" y="975" type="curve" smooth="yes"/>
      <point x="33" y="975" type="line" smooth="yes"/>
      <point x="18" y="975"/>
      <point x="8" y="964"/>
      <point x="8" y="949" type="curve" smooth="yes"/>
      <point x="8" y="871" type="line" smooth="yes"/>
      <point x="8" y="856"/>
      <point x="18" y="846"/>
    </contour>
  </outline>
</glyph>
